<svg width="45" height="49" viewBox="0 0 45 49" fill="none" xmlns="http://www.w3.org/2000/svg">
<mask id="mask0_293_368" style="mask-type:luminance" maskUnits="userSpaceOnUse" x="0" y="0" width="45" height="50">
<path d="M43.6171 49.0056L0.622537 48.3197L1.3829 0.660122L44.3774 1.34606L43.6171 49.0056Z" fill="white"/>
</mask>
<g mask="url(#mask0_293_368)">
<path d="M1.67597 48.0778L13.9447 48.2736C14.5103 48.2826 14.9749 47.7836 14.9848 47.1615L15.3449 24.5902C15.4144 20.2337 18.682 16.741 22.6281 16.804C26.5741 16.867 29.7287 20.4621 29.6592 24.8186L29.2991 47.3898C29.2891 48.012 29.739 48.5255 30.3031 48.5345L42.5719 48.7303C43.136 48.7393 43.602 48.2403 43.6119 47.6182L43.972 25.0469C44.1805 11.979 34.7197 1.19207 22.8802 1.00318C11.042 0.814317 1.23909 11.294 1.0306 24.3619L0.670503 46.9331C0.660578 47.5552 1.11041 48.0688 1.67597 48.0778ZM2.73402 45.8373L2.87806 36.8085L13.1013 36.9716L12.9573 46.0004L2.73402 45.8373ZM31.3612 46.294L31.5052 37.2652L41.7299 37.4284L41.5858 46.4572L31.3612 46.294ZM22.8441 3.26158C33.5554 3.43246 42.1166 13.1891 41.9279 25.0143L41.7659 35.1715L31.5412 35.0084L31.7032 24.8512C31.7926 19.2489 27.737 14.6281 22.6641 14.5472C17.5898 14.4662 13.3888 18.9553 13.2994 24.5576L13.1373 34.7148L2.91407 34.5517L3.07612 24.3945C3.26478 12.5693 12.1314 3.09067 22.8441 3.26158Z" fill="#64FFDA"/>
</g>
</svg>
