<svg width="68" height="58" viewBox="0 0 68 58" fill="none" xmlns="http://www.w3.org/2000/svg">
<path d="M61.6116 28.9402V23.636C61.6099 23.2618 61.5708 22.8909 61.4945 22.525C61.4164 22.1575 61.301 21.8016 61.1501 21.4575C60.9975 21.1117 60.8111 20.7842 60.591 20.4718C60.3709 20.1611 60.1206 19.8737 59.8419 19.6098C59.5615 19.3458 59.2561 19.1086 58.9278 18.9014C58.5976 18.6943 58.2497 18.5189 57.884 18.3752C57.5184 18.2315 57.1421 18.1229 56.7533 18.0494C56.3646 17.9776 55.9723 17.9392 55.5765 17.9392H35.2878V14.5946C35.6073 14.5461 35.9215 14.481 36.2321 14.3958C36.5427 14.3122 36.8463 14.2103 37.1427 14.09C37.4391 13.9698 37.7267 13.8328 38.0054 13.6791C38.2858 13.5254 38.5521 13.3566 38.8095 13.1712C39.0651 12.9858 39.3082 12.7853 39.539 12.5714C39.7698 12.3576 39.9845 12.1304 40.1851 11.8915C40.3839 11.6526 40.5685 11.402 40.7354 11.1414C40.9022 10.8808 41.0513 10.6118 41.1845 10.3328C41.3158 10.0555 41.4276 9.76981 41.5217 9.47745C41.6158 9.18676 41.6904 8.89106 41.7454 8.59035C41.8004 8.28963 41.8359 7.98725 41.8501 7.6832C41.8661 7.37747 41.8608 7.07342 41.8359 6.76937C41.8111 6.46698 41.7649 6.1646 41.701 5.86556C41.6353 5.56819 41.5519 5.27416 41.4472 4.98514C41.3442 4.69612 41.2217 4.41546 41.0815 4.14148C40.9395 3.86582 40.7815 3.60186 40.6058 3.34626C40.4301 3.09065 40.2384 2.84507 40.0307 2.61286C39.8212 2.37897 39.5994 2.15845 39.3615 1.95129C39.1254 1.7458 38.8751 1.55201 38.6124 1.37492C38.3497 1.19784 38.0781 1.03579 37.7941 0.890442C37.5101 0.745098 37.2173 0.61646 36.9173 0.506199C36.6155 0.394267 36.3084 0.300712 35.996 0.225534C35.6836 0.150356 35.3659 0.0952257 35.0464 0.0568012C34.7251 0.0183768 34.4038 0 34.0808 0C33.7577 0 33.4364 0.0183768 33.1151 0.0568012C32.7956 0.0952257 32.4779 0.150356 32.1655 0.225534C31.8513 0.300712 31.5442 0.394267 31.2442 0.506199C30.9443 0.61646 30.6514 0.745098 30.3674 0.890442C30.0834 1.03579 29.81 1.19784 29.5473 1.37492C29.2864 1.55201 29.0361 1.7458 28.7982 1.95129C28.5622 2.15845 28.3385 2.37897 28.1308 2.61286C27.9231 2.84507 27.7314 3.09065 27.5557 3.34626C27.38 3.60186 27.2202 3.86582 27.08 4.14148C26.9398 4.41546 26.8173 4.69612 26.7126 4.98514C26.6096 5.27416 26.5262 5.56819 26.4605 5.86556C26.3948 6.1646 26.3505 6.46698 26.3256 6.76937C26.3008 7.07342 26.2954 7.37747 26.3096 7.6832C26.3256 7.98725 26.3611 8.28963 26.4161 8.59035C26.4694 8.89106 26.5439 9.18676 26.638 9.47745C26.7321 9.76981 26.8457 10.0555 26.977 10.3328C27.1084 10.6118 27.2575 10.8808 27.4261 11.1414C27.593 11.402 27.7758 11.6526 27.9764 11.8915C28.177 12.1304 28.3918 12.3576 28.6225 12.5714C28.8515 12.7853 29.0947 12.9858 29.3521 13.1712C29.6077 13.3566 29.8757 13.5254 30.1544 13.6791C30.433 13.8328 30.7206 13.9698 31.0188 14.09C31.3152 14.2103 31.6188 14.3122 31.9294 14.3958C32.24 14.481 32.5542 14.5461 32.8737 14.5946V17.9392H12.585C12.1892 17.9392 11.7969 17.9776 11.4082 18.0494C11.0194 18.1229 10.6431 18.2315 10.2757 18.3752C9.91004 18.5189 9.56391 18.6943 9.23375 18.9014C8.90359 19.1086 8.60006 19.3458 8.3196 19.6098C8.03915 19.8737 7.78887 20.1611 7.56876 20.4718C7.34866 20.7842 7.16228 21.1117 7.0114 21.4575C6.85874 21.8016 6.74514 22.1575 6.66704 22.525C6.58894 22.8909 6.54989 23.2618 6.54989 23.636V28.9402C6.11678 29.007 5.69254 29.1106 5.27718 29.2476C4.8636 29.3863 4.46422 29.5567 4.08258 29.7622C3.70095 29.966 3.33884 30.1999 3.00158 30.4638C2.66255 30.7278 2.35014 31.0185 2.06614 31.3342C1.78036 31.65 1.5283 31.9874 1.30642 32.3449C1.08454 32.7025 0.89816 33.0767 0.745507 33.4659C0.592853 33.8552 0.479251 34.2545 0.401149 34.6621C0.323047 35.0697 0.283997 35.4824 0.283997 35.8967V39.4685C0.283997 39.8845 0.323047 40.2954 0.401149 40.7031C0.479251 41.1124 0.592853 41.51 0.745507 41.8992C0.89816 42.2885 1.08454 42.6627 1.30642 43.0202C1.5283 43.3794 1.78036 43.7152 2.06614 44.031C2.35014 44.3484 2.66255 44.6374 3.00158 44.9014C3.33884 45.1653 3.70095 45.4009 4.08258 45.6047C4.46422 45.8085 4.8636 45.9789 5.27718 46.1176C5.69254 46.2562 6.11678 46.3581 6.54989 46.425V51.7375C6.54989 52.1118 6.58894 52.4826 6.66704 52.8485C6.74514 53.216 6.85874 53.5719 7.0114 53.916C7.16228 54.2619 7.34866 54.591 7.56876 54.9017C7.78887 55.2124 8.03915 55.4998 8.3196 55.7637C8.60006 56.0277 8.90359 56.2649 9.23375 56.4721C9.56391 56.6792 9.91004 56.8547 10.2757 56.9983C10.6431 57.142 11.0194 57.2506 11.4082 57.3241C11.7969 57.3959 12.1892 57.4344 12.585 57.4344H55.5765C55.9723 57.4344 56.3646 57.3959 56.7533 57.3241C57.1421 57.2506 57.5184 57.142 57.884 56.9983C58.2497 56.8547 58.5976 56.6792 58.9278 56.4721C59.2561 56.2649 59.5615 56.0277 59.8419 55.7637C60.1206 55.4998 60.3709 55.2124 60.591 54.9017C60.8111 54.591 60.9975 54.2619 61.1501 53.916C61.301 53.5719 61.4164 53.216 61.4945 52.8485C61.5708 52.4826 61.6099 52.1118 61.6116 51.7375V46.425C62.0447 46.3581 62.469 46.2562 62.8826 46.1176C63.2979 45.9789 63.6955 45.8085 64.0789 45.6047C64.4606 45.4009 64.8209 45.1653 65.1599 44.9014C65.499 44.6374 65.8114 44.3484 66.0954 44.031C66.3794 43.7152 66.6332 43.3794 66.8551 43.0202C67.077 42.6627 67.2634 42.2885 67.416 41.8992C67.5669 41.51 67.6823 41.1124 67.7604 40.7031C67.8367 40.2954 67.8757 39.8845 67.8775 39.4685V35.8967C67.8757 35.4824 67.8367 35.0697 67.7604 34.6621C67.6823 34.2545 67.5669 33.8552 67.416 33.4659C67.2634 33.0767 67.077 32.7025 66.8551 32.3449C66.6332 31.9874 66.3794 31.65 66.0954 31.3342C65.8114 31.0185 65.499 30.7278 65.1599 30.4638C64.8209 30.1999 64.4606 29.966 64.0789 29.7622C63.6955 29.5567 63.2979 29.3863 62.8826 29.2476C62.469 29.1106 62.0447 29.007 61.6116 28.9402ZM28.7166 7.34907C28.7166 7.01662 28.7503 6.68751 28.8195 6.36173C28.887 6.03596 28.9882 5.72022 29.1231 5.41282C29.258 5.10543 29.4231 4.81474 29.6183 4.53741C29.8136 4.26176 30.0372 4.00616 30.2857 3.7706C30.5342 3.53504 30.804 3.32621 31.0969 3.14077C31.3898 2.95533 31.6987 2.79997 32.0235 2.673C32.3483 2.54603 32.6838 2.44913 33.0299 2.38398C33.3743 2.31883 33.724 2.28541 34.0754 2.28541C34.4269 2.28541 34.7766 2.31715 35.1209 2.38231C35.4671 2.44579 35.8025 2.54269 36.1274 2.66966C36.4522 2.79662 36.7628 2.95199 37.0557 3.13576C37.3486 3.31953 37.6202 3.53003 37.8687 3.76392C38.1172 3.9978 38.3409 4.25341 38.5361 4.52906C38.7331 4.80638 38.8982 5.09707 39.0331 5.40447C39.168 5.71019 39.271 6.02761 39.3402 6.35338C39.4094 6.67915 39.4449 7.00827 39.4449 7.34072C39.4449 7.6715 39.4112 8.00062 39.3438 8.32806C39.2763 8.65383 39.1751 8.96958 39.0402 9.27697C38.9071 9.58437 38.742 9.87673 38.5468 10.1524C38.3515 10.4297 38.1296 10.6853 37.8811 10.9209C37.6326 11.1564 37.3628 11.3669 37.0699 11.5524C36.7788 11.7378 36.47 11.8948 36.1451 12.0218C35.8203 12.1504 35.4848 12.2473 35.1405 12.3125C34.7943 12.3777 34.4464 12.4111 34.095 12.4111L34.0808 12.4094L34.0666 12.4111C33.7151 12.4111 33.3672 12.3777 33.0228 12.3108C32.6785 12.2457 32.343 12.1488 32.0199 12.0218C31.6951 11.8932 31.3862 11.7378 31.0951 11.5524C30.8023 11.3669 30.5325 11.1581 30.2839 10.9225C30.0354 10.6887 29.8153 10.433 29.6201 10.1574C29.4248 9.88007 29.2597 9.58938 29.1248 9.28366C28.9899 8.97626 28.8888 8.66051 28.8195 8.33474C28.7503 8.01064 28.7166 7.68153 28.7166 7.34907ZM2.69805 39.4685V35.8967C2.69805 35.6311 2.7229 35.3688 2.76905 35.1082C2.81698 34.8475 2.88621 34.5919 2.97851 34.3413C3.07081 34.0907 3.18264 33.8502 3.31754 33.618C3.45244 33.3857 3.60687 33.1652 3.77905 32.9581C3.953 32.7492 4.14293 32.5554 4.35061 32.3784C4.55829 32.1996 4.78017 32.0392 5.01448 31.8955C5.25056 31.7519 5.49729 31.6282 5.75467 31.523C6.01205 31.4177 6.27831 31.3342 6.54989 31.2707V44.0944C6.27831 44.031 6.01205 43.9474 5.75467 43.8422C5.49729 43.7386 5.25056 43.6133 5.01448 43.4696C4.78017 43.3276 4.55829 43.1656 4.35061 42.9885C4.14293 42.8097 3.953 42.6159 3.77905 42.4088C3.60687 42.2 3.45244 41.9794 3.31754 41.7472C3.18264 41.515 3.07081 41.2744 2.97851 41.0238C2.88621 40.7749 2.81698 40.5193 2.76905 40.257C2.7229 39.9964 2.69805 39.7341 2.69805 39.4685ZM55.5765 55.1556H12.585C12.3472 55.1556 12.1111 55.1339 11.8786 55.0888C11.646 55.0454 11.4188 54.9802 11.2005 54.895C10.9804 54.8082 10.7709 54.7029 10.5739 54.5793C10.3769 54.454 10.194 54.312 10.0254 54.1533C9.85679 53.9946 9.70768 53.8225 9.57456 53.6354C9.4432 53.4499 9.33138 53.2528 9.24085 53.0456C9.15032 52.8385 9.08109 52.6246 9.03494 52.4041C8.98702 52.1853 8.96394 51.9631 8.96394 51.7375V45.4092C8.96394 45.4025 8.96927 45.3959 8.96927 45.3875C8.96927 45.3792 8.96394 45.3741 8.96394 45.3658V29.9994C8.96394 29.9927 8.96927 29.986 8.96927 29.9777C8.96927 29.9693 8.96394 29.9643 8.96394 29.956V23.636C8.96394 23.4104 8.98702 23.1899 9.03494 22.9694C9.08109 22.7489 9.15032 22.535 9.24085 22.3279C9.33138 22.1207 9.4432 21.9236 9.57456 21.7382C9.70768 21.551 9.85679 21.379 10.0254 21.2203C10.194 21.0616 10.3769 20.9195 10.5739 20.7959C10.7709 20.6706 10.9804 20.5654 11.2005 20.4785C11.4188 20.3933 11.646 20.3281 11.8786 20.2847C12.1111 20.2396 12.3472 20.2179 12.585 20.2179H55.5765C55.8143 20.2179 56.0487 20.2396 56.283 20.2847C56.5155 20.3281 56.7409 20.3933 56.961 20.4785C57.1811 20.5654 57.3888 20.6706 57.5876 20.7959C57.7846 20.9195 57.9675 21.0616 58.1361 21.2203C58.303 21.379 58.4538 21.551 58.5852 21.7382C58.7183 21.9236 58.8284 22.1207 58.9207 22.3279C59.0112 22.535 59.0804 22.7489 59.1266 22.9694C59.1727 23.1899 59.1976 23.4104 59.1976 23.636V29.956C59.1976 29.9643 59.1922 29.971 59.1922 29.9777C59.1922 29.986 59.1976 29.9927 59.1976 29.9994V45.3658C59.1976 45.3741 59.1922 45.3808 59.1922 45.3875C59.1922 45.3959 59.1976 45.4025 59.1976 45.4092V51.7375C59.1976 51.9631 59.1727 52.1853 59.1266 52.4041C59.0804 52.6246 59.0112 52.8385 58.9207 53.0456C58.8284 53.2528 58.7183 53.4499 58.5852 53.6354C58.4538 53.8225 58.303 53.9946 58.1361 54.1533C57.9675 54.312 57.7846 54.454 57.5876 54.5793C57.3888 54.7029 57.1811 54.8082 56.961 54.895C56.7409 54.9802 56.5155 55.0454 56.283 55.0888C56.0487 55.1339 55.8143 55.1556 55.5765 55.1556ZM65.4635 39.4685C65.4617 39.7341 65.4386 39.9964 65.3907 40.257C65.3445 40.5193 65.2753 40.7749 65.183 41.0238C65.0907 41.2744 64.9771 41.515 64.8422 41.7472C64.7091 41.9794 64.5546 42.2 64.3807 42.4088C64.2085 42.6159 64.0168 42.8097 63.8109 42.9885C63.6032 43.1656 63.3813 43.3276 63.1453 43.4696C62.9092 43.6133 62.6642 43.7386 62.4051 43.8422C62.1477 43.9474 61.8832 44.031 61.6116 44.0944V31.2707C61.8832 31.3342 62.1477 31.4177 62.4051 31.523C62.6642 31.6282 62.9092 31.7519 63.1453 31.8955C63.3813 32.0392 63.6032 32.1996 63.8109 32.3784C64.0168 32.5554 64.2085 32.7492 64.3807 32.9581C64.5546 33.1652 64.7091 33.3857 64.8422 33.618C64.9771 33.8502 65.0907 34.0907 65.183 34.3413C65.2753 34.5919 65.3445 34.8475 65.3907 35.1082C65.4386 35.3688 65.4617 35.6311 65.4635 35.8967V39.4685Z" fill="#64FFDA"/>
<path d="M30.0952 33.1603C30.0952 32.9197 30.081 32.6808 30.0562 32.4403C30.0313 32.2014 29.994 31.9641 29.9443 31.7286C29.8946 31.493 29.8325 31.2591 29.7597 31.0286C29.6852 30.7997 29.6 30.5725 29.5023 30.3503C29.4047 30.1281 29.2964 29.9126 29.1757 29.7004C29.055 29.4883 28.9255 29.2811 28.7835 29.0823C28.6415 28.8818 28.4906 28.6897 28.329 28.5026C28.1675 28.3172 27.9971 28.1401 27.8161 27.9697C27.6368 27.7993 27.4469 27.6372 27.2498 27.4852C27.0528 27.3332 26.8487 27.1895 26.6374 27.0558C26.4262 26.9222 26.2079 26.7986 25.9824 26.6866C25.7588 26.573 25.528 26.4695 25.292 26.3776C25.0576 26.2857 24.818 26.2055 24.5731 26.1353C24.3299 26.0652 24.0832 26.0067 23.8329 25.9599C23.5844 25.9131 23.3323 25.8781 23.0785 25.8547C22.8246 25.8313 22.5708 25.8196 22.3152 25.8196C22.0614 25.8196 21.8076 25.8313 21.5537 25.8547C21.2999 25.8781 21.0478 25.9131 20.7976 25.9599C20.549 26.0067 20.3023 26.0652 20.0574 26.1353C19.8142 26.2055 19.5746 26.2857 19.3385 26.3776C19.1042 26.4695 18.8734 26.573 18.6498 26.6866C18.4243 26.7986 18.206 26.9222 17.9948 27.0558C17.7818 27.1895 17.5776 27.3332 17.3806 27.4852C17.1836 27.6372 16.9954 27.7993 16.8161 27.9697C16.6351 28.1401 16.4647 28.3172 16.3032 28.5026C16.1416 28.6897 15.989 28.8818 15.8487 29.0823C15.7067 29.2811 15.5754 29.4883 15.4565 29.7004C15.3358 29.9126 15.2275 30.1281 15.1299 30.3503C15.0322 30.5725 14.947 30.7997 14.8725 31.0286C14.7979 31.2591 14.7358 31.493 14.6861 31.7286C14.6364 31.9641 14.5991 32.2014 14.5743 32.4403C14.5494 32.6808 14.537 32.9197 14.537 33.1603C14.537 33.4009 14.5494 33.6414 14.5743 33.8803C14.5991 34.1192 14.6364 34.3565 14.6861 34.592C14.7358 34.8293 14.7979 35.0615 14.8725 35.292C14.947 35.5209 15.0322 35.7481 15.1299 35.9703C15.2275 36.1925 15.3358 36.4097 15.4565 36.6218C15.5754 36.834 15.7067 37.0395 15.8487 37.24C15.989 37.4388 16.1416 37.6326 16.3032 37.818C16.4647 38.0034 16.6351 38.1822 16.8161 38.3509C16.9954 38.5213 17.1836 38.6834 17.3806 38.8354C17.5776 38.9874 17.7818 39.1311 17.9948 39.2648C18.206 39.3984 18.4243 39.522 18.6498 39.6356C18.8734 39.7476 19.1042 39.8511 19.3385 39.943C19.5746 40.0349 19.8142 40.1168 20.0574 40.1853C20.3023 40.2554 20.549 40.3139 20.7976 40.3607C21.0478 40.4075 21.2999 40.4425 21.5537 40.4659C21.8076 40.4893 22.0614 40.5027 22.3152 40.5027C22.5708 40.501 22.8246 40.4893 23.0785 40.4659C23.3323 40.4425 23.5826 40.4058 23.8329 40.359C24.0832 40.3122 24.3299 40.2538 24.5731 40.1836C24.8162 40.1134 25.0559 40.0332 25.292 39.9414C25.5263 39.8495 25.757 39.7459 25.9807 39.6323C26.2061 39.5187 26.4244 39.3951 26.6357 39.2614C26.8469 39.1278 27.051 38.9858 27.248 38.8337C27.4451 38.68 27.6332 38.5197 27.8143 38.3493C27.9936 38.1789 28.164 38.0018 28.3255 37.8163C28.487 37.6292 28.6397 37.4371 28.7799 37.2366C28.9219 37.0378 29.0533 36.8307 29.174 36.6202C29.2929 36.408 29.4029 36.1908 29.5006 35.9686C29.5982 35.7464 29.6834 35.5209 29.758 35.2903C29.8307 35.0615 29.8929 34.8276 29.9443 34.592C29.994 34.3565 30.0313 34.1192 30.0562 33.8803C30.081 33.6414 30.0934 33.4009 30.0952 33.1603ZM16.951 33.1603C16.951 32.8278 16.9865 32.4987 17.054 32.173C17.1232 31.8472 17.2244 31.5298 17.3593 31.2224C17.4942 30.915 17.6593 30.6243 17.8563 30.347C18.0516 30.0713 18.2734 29.8157 18.522 29.5802C18.7722 29.3446 19.042 29.1358 19.3349 28.9503C19.6278 28.7666 19.9384 28.6095 20.2633 28.4826C20.5881 28.3556 20.9236 28.2604 21.2697 28.1952C21.6141 28.1301 21.9638 28.0966 22.3152 28.0966C22.6684 28.0966 23.0164 28.1301 23.3625 28.1952C23.7086 28.2604 24.0441 28.3556 24.3689 28.4826C24.6938 28.6095 25.0026 28.7666 25.2955 28.9503C25.5884 29.1358 25.86 29.3446 26.1085 29.5802C26.3588 29.8157 26.5806 30.0713 26.7759 30.347C26.9711 30.6243 27.138 30.915 27.2711 31.2224C27.406 31.5298 27.509 31.8472 27.5764 32.173C27.6457 32.4987 27.6812 32.8278 27.6812 33.1603C27.6812 33.4928 27.6457 33.8219 27.5764 34.1476C27.509 34.4751 27.406 34.7908 27.2711 35.0982C27.138 35.4056 26.9711 35.6963 26.7759 35.9736C26.5806 36.2493 26.3588 36.5049 26.1085 36.7404C25.86 36.976 25.5884 37.1848 25.2955 37.3703C25.0026 37.5557 24.6938 37.7111 24.3689 37.838C24.0441 37.965 23.7086 38.0619 23.3625 38.1254C23.0164 38.1905 22.6684 38.224 22.3152 38.224C21.9638 38.2223 21.6158 38.1905 21.2697 38.1254C20.9254 38.0602 20.5899 37.9633 20.2633 37.8364C19.9384 37.7094 19.6296 37.5524 19.3367 37.3686C19.0438 37.1832 18.774 36.9743 18.5255 36.7388C18.2752 36.5032 18.0533 36.2476 17.8581 35.972C17.6611 35.6963 17.496 35.4039 17.3611 35.0966C17.2262 34.7908 17.125 34.4734 17.0558 34.1476C16.9865 33.8219 16.951 33.4928 16.951 33.1603Z" fill="#64FFDA"/>
<path d="M45.4422 25.8179C45.1884 25.8179 44.9346 25.8296 44.6807 25.853C44.4269 25.878 44.1748 25.9131 43.9246 25.9599C43.6761 26.0067 43.4293 26.0651 43.1844 26.1353C42.9412 26.2038 42.7016 26.2856 42.4655 26.3775C42.2312 26.4694 42.0004 26.5713 41.775 26.6849C41.5513 26.7985 41.333 26.9222 41.1218 27.0558C40.9088 27.1895 40.7046 27.3315 40.5076 27.4852C40.3106 27.6372 40.1224 27.7992 39.9414 27.968C39.7621 28.1384 39.5917 28.3171 39.4302 28.5026C39.2686 28.688 39.116 28.8818 38.974 29.0806C38.8338 29.2811 38.7024 29.4866 38.5817 29.6987C38.4628 29.9109 38.3527 30.1281 38.2551 30.3503C38.1592 30.5725 38.0723 30.798 37.9995 31.0285C37.9249 31.2591 37.8628 31.4913 37.8131 31.7269C37.7634 31.9641 37.7261 32.2013 37.7013 32.4402C37.6764 32.6791 37.664 32.9197 37.664 33.1603C37.664 33.4008 37.6764 33.6397 37.7013 33.8803C37.7261 34.1192 37.7634 34.3564 37.8131 34.592C37.8628 34.8275 37.9249 35.0614 37.9977 35.2903C38.0723 35.5209 38.1575 35.7481 38.2551 35.9703C38.3527 36.1924 38.4628 36.408 38.5817 36.6201C38.7024 36.8323 38.8338 37.0395 38.974 37.2383C39.116 37.4387 39.2669 37.6309 39.4284 37.818C39.5899 38.0034 39.7621 38.1805 39.9414 38.3509C40.1224 38.5213 40.3106 38.6833 40.5076 38.8354C40.7046 38.9874 40.9088 39.1311 41.12 39.2647C41.333 39.3984 41.5513 39.522 41.775 39.6356C42.0004 39.7475 42.2294 39.8511 42.4655 39.943C42.7016 40.0349 42.9394 40.1151 43.1844 40.1852C43.4276 40.2554 43.6743 40.3139 43.9246 40.3607C44.1748 40.4074 44.4269 40.4425 44.679 40.4659C44.9328 40.4893 45.1866 40.5027 45.4422 40.5027C45.6961 40.5027 45.9517 40.4893 46.2037 40.4659C46.4575 40.4425 46.7096 40.4074 46.9599 40.3607C47.2102 40.3139 47.4569 40.2554 47.7001 40.1852C47.9433 40.1167 48.1829 40.0349 48.419 39.943C48.655 39.8511 48.884 39.7492 49.1095 39.6356C49.3331 39.522 49.5514 39.3984 49.7644 39.2647C49.9757 39.1311 50.1798 38.9874 50.3768 38.8354C50.5739 38.6833 50.762 38.5213 50.9431 38.3526C51.1224 38.1822 51.2945 38.0034 51.4561 37.818C51.6176 37.6325 51.7685 37.4387 51.9105 37.2399C52.0525 37.0395 52.1821 36.834 52.3028 36.6218C52.4235 36.4096 52.5317 36.1924 52.6294 35.9703C52.727 35.7481 52.8122 35.5225 52.8867 35.292C52.9595 35.0614 53.0216 34.8292 53.0713 34.592C53.121 34.3564 53.1583 34.1192 53.1832 33.8803C53.208 33.6414 53.2204 33.4008 53.2204 33.1603C53.2204 32.9197 53.208 32.6808 53.1832 32.4419C53.1583 32.2013 53.121 31.9641 53.0696 31.7285C53.0199 31.493 52.9577 31.2608 52.885 31.0302C52.8104 30.7997 52.7252 30.5741 52.6276 30.3519C52.53 30.1298 52.4199 29.9126 52.301 29.7004C52.1803 29.4899 52.0489 29.2827 51.9069 29.0839C51.7667 28.8835 51.614 28.6913 51.4525 28.5042C51.291 28.3188 51.1206 28.1417 50.9413 27.9713C50.7602 27.8009 50.5721 27.6405 50.3751 27.4868C50.178 27.3348 49.9739 27.1928 49.7627 27.0591C49.5514 26.9255 49.3331 26.8019 49.1077 26.6883C48.884 26.5747 48.6533 26.4711 48.419 26.3792C48.1829 26.2873 47.9433 26.2071 47.7001 26.137C47.4569 26.0668 47.2102 26.0083 46.9599 25.9615C46.7096 25.9131 46.4575 25.878 46.2055 25.8546C45.9517 25.8312 45.6978 25.8195 45.4422 25.8179ZM45.4422 38.2239C45.0908 38.2239 44.7411 38.1905 44.3967 38.127C44.0506 38.0619 43.7151 37.965 43.3903 37.838C43.0637 37.711 42.7548 37.5557 42.4619 37.3702C42.1691 37.1848 41.8975 36.976 41.649 36.7404C41.4005 36.5049 41.1768 36.2492 40.9816 35.9736C40.7863 35.6963 40.6212 35.4056 40.4863 35.0982C40.3514 34.7908 40.2502 34.4734 40.181 34.1476C40.1118 33.8218 40.0781 33.4927 40.0781 33.1603C40.0781 32.8278 40.1118 32.4987 40.181 32.1729C40.2502 31.8472 40.3514 31.5297 40.4863 31.2223C40.6212 30.9149 40.7863 30.6243 40.9816 30.3469C41.1768 30.0713 41.4005 29.8157 41.649 29.5801C41.8975 29.3446 42.1691 29.1341 42.4619 28.9503C42.7548 28.7649 43.0637 28.6095 43.3903 28.4825C43.7151 28.3555 44.0506 28.2587 44.3967 28.1935C44.7411 28.13 45.0908 28.0966 45.4422 28.0966C45.7955 28.0966 46.1434 28.13 46.4895 28.1935C46.8339 28.2587 47.1693 28.3555 47.4959 28.4825C47.8208 28.6095 48.1296 28.7649 48.4225 28.9503C48.7154 29.1357 48.987 29.3446 49.2355 29.5801C49.4858 29.8157 49.7076 30.0713 49.9029 30.3469C50.0982 30.6243 50.2632 30.9149 50.3981 31.2223C50.533 31.5297 50.636 31.8472 50.7034 32.1729C50.7727 32.4987 50.8064 32.8278 50.8064 33.1603C50.8064 33.4927 50.7727 33.8218 50.7034 34.1476C50.6342 34.4734 50.5313 34.7908 50.3964 35.0965C50.2615 35.4039 50.0964 35.6963 49.9011 35.9719C49.7059 36.2476 49.4822 36.5032 49.2337 36.7387C48.9852 36.9743 48.7136 37.1831 48.4207 37.3686C48.1296 37.5523 47.819 37.7094 47.4942 37.8363C47.1693 37.9633 46.8339 38.0602 46.4895 38.1254C46.1434 38.1905 45.7955 38.2223 45.4422 38.2239Z" fill="#64FFDA"/>
<path d="M43.4667 45.0419C43.1436 45.3225 42.8063 45.5865 42.4584 45.8371C42.1088 46.0877 41.7466 46.3232 41.3739 46.5421C41.0011 46.7609 40.6195 46.9631 40.2254 47.1485C39.8332 47.3339 39.432 47.5027 39.0237 47.653C38.6155 47.8034 38.1983 47.9354 37.7777 48.049C37.3552 48.1626 36.9274 48.2578 36.4961 48.3347C36.0647 48.4115 35.6299 48.4683 35.1932 48.5067C34.7565 48.5452 34.3181 48.5635 33.8797 48.5635C33.4395 48.5635 33.0028 48.5452 32.5644 48.5067C32.1277 48.4683 31.6928 48.4115 31.2615 48.3347C30.8302 48.2578 30.4041 48.1626 29.9817 48.049C29.5592 47.9354 29.1439 47.8034 28.7356 47.653C28.3256 47.5027 27.9244 47.3339 27.5321 47.1485C27.1398 46.9631 26.7564 46.7609 26.3837 46.5421C26.0127 46.3232 25.6506 46.0877 25.3009 45.8371C24.9512 45.5865 24.6157 45.3225 24.2909 45.0419C24.1738 44.9383 24.0406 44.8614 23.8897 44.8096C23.7406 44.7562 23.5844 44.7345 23.4247 44.7395C23.2649 44.7445 23.1123 44.7796 22.9667 44.843C22.8212 44.9065 22.6951 44.9934 22.5851 45.1037C22.4768 45.2139 22.3952 45.3409 22.3401 45.4829C22.2833 45.6249 22.2585 45.7702 22.2656 45.9206C22.2709 46.0726 22.3082 46.2163 22.3739 46.3533C22.4413 46.4903 22.5336 46.6106 22.6508 46.7141C23.0289 47.0416 23.4229 47.3523 23.8329 47.6464C24.243 47.9404 24.6654 48.2144 25.1021 48.4716C25.5388 48.7272 25.9861 48.9645 26.4458 49.1817C26.9055 49.3988 27.3759 49.596 27.8552 49.7714C28.3344 49.9468 28.8208 50.1022 29.3143 50.2358C29.8095 50.3678 30.3083 50.4797 30.8142 50.5699C31.3201 50.6585 31.8277 50.727 32.3407 50.7721C32.8519 50.8155 33.3649 50.8389 33.8797 50.8389C34.3927 50.8389 34.9074 50.8155 35.4186 50.7721C35.9298 50.727 36.4393 50.6585 36.9452 50.5699C37.4493 50.4797 37.9498 50.3678 38.4433 50.2358C38.9385 50.1022 39.4249 49.9468 39.9042 49.7714C40.3834 49.596 40.852 49.3988 41.3118 49.1817C41.7715 48.9645 42.2206 48.7272 42.6572 48.4716C43.0939 48.2144 43.5164 47.9404 43.9264 47.6464C44.3347 47.3523 44.7287 47.0416 45.1086 46.7141C45.2257 46.6106 45.318 46.4903 45.3837 46.3533C45.4512 46.2163 45.4867 46.0726 45.4938 45.9223C45.4991 45.7702 45.4742 45.6249 45.4192 45.4829C45.3624 45.3409 45.2808 45.2156 45.1725 45.1037C45.0642 44.9934 44.9364 44.9065 44.7908 44.843C44.6453 44.7796 44.4926 44.7462 44.3329 44.7395C44.1731 44.7345 44.0187 44.7578 43.8678 44.8096C43.7187 44.8614 43.5856 44.9399 43.4667 45.0419Z" fill="#64FFDA"/>
</svg>
