<svg width="59" height="57" viewBox="0 0 59 57" fill="none" xmlns="http://www.w3.org/2000/svg">
<path d="M57.8752 4.86343H47.6844C47.0629 4.86343 46.5579 5.3187 46.5579 5.88245V7.24674C46.5579 8.62479 45.2743 9.7477 43.6969 9.7477C42.0924 9.7477 40.8359 8.64923 40.8359 7.24674V5.88245C40.8359 5.3187 40.3326 4.86343 39.7094 4.86343H29.5186C29.5034 4.85732 20.4526 4.86801 20.4357 4.86343V4.50135C20.1452 -1.71208 9.99997 -1.40042 10.2094 4.86343H1.1265C0.504981 4.86343 0 5.3187 0 5.88245V30.9241C0 31.4863 0.504981 31.9431 1.1265 31.9431H4.64785L2.47593 35.269C2.20064 35.6922 2.2969 36.2331 2.70562 36.5554L5.63248 38.8654C5.61052 39.2107 5.61052 39.5636 5.63248 39.9089L2.70562 42.2204C2.2969 42.5427 2.20064 43.082 2.47593 43.5052L6.71506 49.9967C6.98191 50.4062 7.52911 50.5925 8.02903 50.4489L11.7851 49.3535C12.1195 49.543 12.4691 49.7202 12.8323 49.8867L13.6328 53.2906C13.7443 53.7611 14.2036 54.0972 14.734 54.0972H23.2122C23.7425 54.0972 24.2019 53.7611 24.3134 53.2906L25.1139 49.8867C25.4754 49.7202 25.8266 49.543 26.161 49.3535L28.3752 49.9982V55.9825C28.3752 56.5447 28.8785 57 29.5 57H55.1172C57.2587 57 59 55.4524 59 53.5488V5.88245C59 5.3187 58.4967 4.86343 57.8752 4.86343ZM43.6969 11.7842C46.6693 11.7934 49 9.52464 48.8092 6.89994C48.8109 6.89994 56.7487 6.89994 56.7487 6.89994V29.9051H48.8109V29.5598C48.5339 23.3402 38.3633 23.6825 38.5846 29.9051H31.9675C31.6533 29.5063 31.2125 28.4552 30.6265 28.3376V21.9301C30.6265 21.3664 30.1215 20.9111 29.5 20.9111H27.9344C24.1681 20.8255 24.158 15.9993 27.9361 15.9107C27.9344 15.9107 29.5 15.9107 29.5 15.9107C30.1215 15.9107 30.6265 15.4554 30.6265 14.8917V6.89994H38.5846V7.24674C38.5846 9.7477 40.8781 11.7842 43.6969 11.7842ZM2.2513 29.9051V6.89994H11.3359C11.9574 6.89994 12.4607 6.44467 12.4607 5.88245V4.50135C12.4607 3.1233 13.7443 2.00039 15.3217 2.00039C16.8991 2.00039 18.1827 3.1233 18.1827 4.50135V5.88245C18.1827 6.44467 18.6877 6.89994 19.3092 6.89994H28.3752V13.8742H27.9344C20.8832 14.1339 21.3426 23.192 28.3752 22.9476V28.776L26.161 29.4208C25.825 29.2313 25.4754 29.0526 25.1139 28.8876L24.3134 25.4837C24.2019 25.0131 23.7425 24.677 23.2122 24.677H14.734C14.2036 24.677 13.7443 25.0131 13.6328 25.4837L12.8323 28.8876C12.4708 29.0526 12.1212 29.2313 11.7851 29.4208L8.02903 28.3253C6.89071 27.9831 6.45328 29.2573 5.9787 29.9051H2.2513ZM25.3571 47.3949C24.6816 47.9755 23.3051 48.058 23.0265 48.9731L22.3002 52.0607H15.646L14.9197 48.9731C14.8454 48.6569 14.6107 48.3926 14.2864 48.2581C13.3254 48.003 12.6262 47.0435 11.6061 47.2651L8.19623 48.2596L4.89105 43.1982L7.53756 41.1082C8.12698 40.6758 8.12698 38.0985 7.53587 37.6646L4.89105 35.5761L8.19623 30.5146L11.6061 31.5092C12.6228 31.7292 13.3339 30.7682 14.2864 30.5146C14.6107 30.3802 14.8454 30.1159 14.9197 29.7996L15.646 26.7151H22.3002L23.0265 29.7996C23.1008 30.1159 23.3355 30.3802 23.6598 30.5146C24.6089 30.7652 25.325 31.7323 26.3401 31.5092L29.75 30.5146L33.0551 35.5761L30.4086 37.6646C29.8192 38.0985 29.8192 40.6758 30.4086 41.1082L33.0551 43.1982L29.75 48.2596L26.3401 47.2651C26.009 47.1688 25.6442 47.2162 25.3571 47.3949ZM55.1172 54.9635H30.6265V50.4367C30.8731 50.3603 31.0909 50.2121 31.2311 49.9967L35.4686 43.5052C35.7455 43.082 35.6493 42.5427 35.2406 42.2204L32.3137 39.9089C32.3357 39.5636 32.3357 39.2107 32.3137 38.8654L35.2406 36.5554C35.6493 36.2331 35.7455 35.6922 35.4686 35.269L33.2966 31.9431H39.7111C40.3326 31.9431 40.8359 31.4863 40.8359 30.9241V29.5598C40.9018 26.2537 46.4684 26.2659 46.5579 29.5598V30.9241C46.5579 31.4863 47.0629 31.9431 47.6844 31.9431H56.7487V53.5488C56.7487 54.3295 56.0174 54.9635 55.1172 54.9635Z" fill="#64FFDA"/>
</svg>
